<svg id="Filled_expand" height="512" viewBox="0 0 512 512" width="512" xmlns="http://www.w3.org/2000/svg" data-name="Filled expand"><g id="_02_copy_2" data-name="02 copy 2"><g><path d="m392 120h32v304h-32z" fill="#fa4231"/><path d="m88 120h32v304h-32z" fill="#fa4231"/><path d="m472 56-8 40h-416l-8-40z" fill="#faa231"/><path d="m448 176h-384l-8-32 32 8h336l32-8z" fill="#faa231"/><path d="m480.047 57.238c-148.502 22.695-299.592 21.457-448.094-1.238-2.653-11.072-5.303-20.914-7.953-32a1483.053 1483.053 0 0 0 464 0q-3.975 16.629-7.953 33.238z" fill="#fa4231"/><path d="m224 72h64v80h-64z" fill="#fdbf44"/><path d="m80 96h48v24h-48z" fill="#994635"/><path d="m120 264h-32l-8-16v-8h48v8z" fill="#faa231"/><path d="m80 424h48v64h-48z" fill="#994635"/><path d="m424 264h-32l-8-16v-8h48v8z" fill="#faa231"/><path d="m384 424h48v64h-48z" fill="#994635"/><path d="m384 96h48v24h-48z" fill="#994635"/><path d="m440 480v-56a8 8 0 0 0 -8-8v-32h-16v32h-16v-144h16v96h16v-102.112l7.155-14.31a7.994 7.994 0 0 0 .845-3.578h8v-16h-16v-48h16a8 8 0 0 0 7.761-6.06l6.485-25.94h9.754v-16h-15.984a8.012 8.012 0 0 0 -1.956.239l-22.06 5.515v-13.754a8 8 0 0 0 8-8v-16h24a8 8 0 0 0 7.845-6.431l6.393-31.969 3.017-.457a8 8 0 0 0 6.572-6.045q3.978-16.609 7.954-33.241a8 8 0 0 0 -9.032-9.761 1475.247 1475.247 0 0 1 -397.843 8.668l-1.812 15.9a1491.141 1491.141 0 0 0 390.356-6.942q-1.963 8.208-3.928 16.409c-141.822 21.118-288.131 20.702-435.065-1.239q-1.358-5.5-2.69-10.71-.558-2.2-1.125-4.447c12.1 1.816 24.284 3.493 36.365 5l1.986-15.876c-15.88-1.983-31.943-4.259-47.742-6.759a8 8 0 0 0 -9.032 9.761c1.35 5.646 2.717 11.038 4.038 16.252 1.285 5.072 2.615 10.317 3.916 15.751a8 8 0 0 0 6.572 6.045q1.38.212 2.762.42l6.648 33.241a8 8 0 0 0 7.845 6.43h24v16a8 8 0 0 0 8 8v13.754l-22.06-5.515a8 8 0 0 0 -1.956-.239h-15.984v16h9.754l6.485 25.94a8 8 0 0 0 7.761 6.06h16v48h-16v16h8a7.994 7.994 0 0 0 .845 3.578l7.155 14.31v150.112a8 8 0 0 0 -8 8v56h-56v16h152v-16h-32v-56a8 8 0 0 0 -8-8v-150.112l7.155-14.31a7.994 7.994 0 0 0 .845-3.578h8v-16h-16v-48h32v-16h-89.754l-3.246-13 18.924 4.731a7.986 7.986 0 0 0 1.338.239h.023c.067.006.135.012.2.016h.048l.177.008h.063.229 335.998.229.063l.176-.008h.05c.067 0 .135-.01.2-.016h.023a7.986 7.986 0 0 0 1.338-.239l18.926-4.731-3.251 13h-265.754v16h208v48h-16v16h8a7.994 7.994 0 0 0 .845 3.578l7.155 14.31v150.112a8 8 0 0 0 -8 8v56h-192v16h312v-16zm-324.944-224h-22.112l-4-8h30.112zm-27.056 224v-48h32v48zm8-64v-144h16v144zm16-232v48h-16v-48zm312-72h-32v-8h32zm-128-30.724a1448.208 1448.208 0 0 0 165.435-13.245l-3.994 19.969h-161.441zm80 22.724v16a8 8 0 0 0 8 8v16h-88v-40zm-321.441-16-4.246-21.227a1536.079 1536.079 0 0 0 165.687 14.18v7.047zm65.441 24h-32v-8h32zm96 32h-88v-16a8 8 0 0 0 8-8v-16h80zm-120 0v-16h16v16zm136 0v-62.639q15.066.3 30.1.3 8.957 0 17.9-.109v62.448zm168 0v-16h16v16zm-3.056 112-4-8h30.112l-4 8zm3.056-72h16v48h-16zm-8 296v-48h32v48z"/></g></g></svg>